Coordinates
version=1
nRows=16
nColumns=63
inDegrees=yes

Units are S.I. units (second, meters, Newtons, ...)
If the header above contains a line with 'inDegrees', this indicates whether rotational values are in degrees (yes) or radians (no).

endheader
time	pelvis_tilt	pelvis_list	pelvis_rotation	pelvis_tx	pelvis_ty	pelvis_tz	hip_flexion_r	hip_adduction_r	hip_rotation_r	knee_angle_r	knee_angle_r_beta	ankle_angle_r	subtalar_angle_r	mtp_angle_r	hip_flexion_l	hip_adduction_l	hip_rotation_l	knee_angle_l	knee_angle_l_beta	ankle_angle_l	subtalar_angle_l	mtp_angle_l	L5_S1_Flex_Ext	L5_S1_Lat_Bending	L5_S1_axial_rotation	L4_L5_Flex_Ext	L4_L5_Lat_Bending	L4_L5_axial_rotation	L3_L4_Flex_Ext	L3_L4_Lat_Bending	L3_L4_axial_rotation	L2_L3_Flex_Ext	L2_L3_Lat_Bending	L2_L3_axial_rotation	L1_L2_Flex_Ext	L1_L2_Lat_Bending	L1_L2_axial_rotation	L1_T12_Flex_Ext	L1_T12_Lat_Bending	L1_T12_axial_rotation	Abs_r3	Abs_r2	Abs_r1	Abs_t1	Abs_t2	neck_flexion	neck_bending	neck_rotation	arm_flex_r	arm_add_r	arm_rot_r	elbow_flex_r	pro_sup_r	wrist_flex_r	wrist_dev_r	arm_flex_l	arm_add_l	arm_rot_l	elbow_flex_l	pro_sup_l	wrist_flex_l	wrist_dev_l
0.000000	-2.474595	-2.589274	111.892773	0.392537	0.779140	1.026137	-0.446401	-3.282845	-29.737221	11.656391	0.203442	28.271202	8.137974	0.000000	3.970771	2.132128	7.043961	9.910787	0.172976	26.723151	16.494293	0.000000	0.104055	-0.385382	-2.191389	0.193241	-0.512558	-2.328351	0.170953	-0.937019	-2.328351	0.118925	-0.937019	-1.917466	0.096626	-0.785872	-1.780504	0.059457	-0.596957	-1.643542	0.743258	-4.359522	-12.187850	0.000000	0.000000	24.979738	-2.172488	-2.441895	9.627476	-16.322273	57.041567	67.792260	89.550676	27.495008	34.281068	2.475087	-15.981914	40.641372	74.314118	55.796388	-6.861584	29.131205
0.016949	-2.791553	-2.867615	111.887055	0.392560	0.778563	1.025637	-0.626960	-3.486456	-28.695107	11.043126	0.192739	28.214088	7.112780	0.000000	4.128684	2.615518	7.820793	10.266066	0.179177	26.559303	15.012683	0.000000	0.102856	-0.432961	-2.070108	0.191014	-0.575838	-2.199490	0.168982	-1.052701	-2.199490	0.117554	-1.052701	-1.811345	0.095512	-0.882893	-1.681963	0.058772	-0.670656	-1.552581	0.734692	-4.897738	-11.513320	0.000000	0.000000	25.396287	-2.055093	-3.560127	8.365751	-16.191996	55.005484	68.157889	89.526242	26.706655	34.253057	2.556966	-16.092933	40.798880	74.625662	56.698244	-6.486023	29.518639
0.033898	-3.020210	-3.101731	111.918344	0.392584	0.778066	1.025083	-0.775382	-3.620733	-27.941451	10.532874	0.183833	28.196284	6.394323	0.000000	4.261623	2.974591	8.456490	10.550628	0.184143	26.446851	13.855371	0.000000	0.104461	-0.468969	-1.975883	0.193994	-0.623729	-2.099375	0.171618	-1.140252	-2.099375	0.119388	-1.140252	-1.728897	0.097002	-0.956322	-1.605405	0.059689	-0.726433	-1.481912	0.746152	-5.305072	-10.989267	0.000000	0.000000	25.768247	-2.001674	-4.501905	7.270302	-16.074302	53.289186	68.457673	89.503271	26.101111	34.228184	2.578191	-16.190851	40.919963	74.900966	57.530648	-6.199762	29.855251
0.050847	-3.169174	-3.294418	111.980989	0.392610	0.777644	1.024492	-0.893462	-3.693274	-27.447801	10.119988	0.176627	28.213408	5.950999	0.000000	4.371248	3.220845	8.961355	10.770981	0.187989	26.380514	12.993049	0.000000	0.108404	-0.494468	-1.905362	0.201317	-0.657642	-2.024447	0.178097	-1.202248	-2.024447	0.123895	-1.202248	-1.667192	0.100664	-1.008318	-1.548106	0.061942	-0.765930	-1.429021	0.774320	-5.593515	-10.597050	0.000000	0.000000	26.096742	-2.005850	-5.284097	6.326902	-15.969005	51.859566	68.699316	89.481722	25.655393	34.206212	2.550169	-16.275725	41.012636	75.139998	58.288630	-5.992898	30.144399
0.067797	-3.247052	-3.448470	112.069336	0.392641	0.777294	1.023877	-0.982994	-3.711677	-27.185706	9.798819	0.171022	28.261076	5.751208	0.000000	4.459219	3.365777	9.345692	10.933627	0.190828	26.355009	12.396410	0.000000	0.114222	-0.510516	-1.855194	0.212121	-0.678986	-1.971144	0.187655	-1.241268	-1.971144	0.130544	-1.241268	-1.623295	0.106066	-1.041043	-1.507345	0.065266	-0.790789	-1.391395	0.815875	-5.775055	-10.318032	0.000000	0.000000	26.382897	-2.061237	-5.923573	5.521327	-15.875918	50.683515	68.890523	89.461557	25.346522	34.186908	2.484306	-16.347612	41.084911	75.342725	58.967224	-5.855528	30.389442
0.084746	-3.262452	-3.566681	112.177735	0.392676	0.777010	1.023254	-1.045771	-3.683539	-27.126714	9.563723	0.166918	28.334906	5.763345	0.000000	4.527195	3.420886	9.619802	11.045074	0.192773	26.365055	12.036146	0.000000	0.121449	-0.518173	-1.822028	0.225543	-0.689170	-1.935904	0.199528	-1.259887	-1.935904	0.138804	-1.259887	-1.594274	0.112777	-1.056659	-1.480397	0.069396	-0.802650	-1.366521	0.867497	-5.861680	-10.133571	0.000000	0.000000	26.627836	-2.161452	-6.437205	4.839350	-15.794857	49.727922	69.038998	89.442736	25.151517	34.170036	2.392008	-16.406568	41.144804	75.509113	59.561460	-5.777751	30.593736
0.101695	-3.223982	-3.651847	112.300532	0.392718	0.776790	1.022638	-1.083588	-3.616457	-27.242374	9.409050	0.164219	28.430515	5.955810	0.000000	4.576835	3.397670	9.793989	11.111825	0.193938	26.405370	11.882950	0.000000	0.129621	-0.518500	-1.802511	0.240719	-0.689605	-1.915168	0.212954	-1.260682	-1.915168	0.148143	-1.260682	-1.577198	0.120366	-1.057326	-1.464541	0.074065	-0.803157	-1.351884	0.925867	-5.865379	-10.025028	0.000000	0.000000	26.832685	-2.300114	-6.841860	4.266746	-15.725636	48.959679	69.152444	89.425219	25.047397	34.155363	2.284681	-16.452648	41.200328	75.639128	60.066369	-5.749665	30.760639
0.118644	-3.140248	-3.706762	112.432076	0.392765	0.776629	1.022042	-1.098240	-3.518029	-27.504233	9.329154	0.162824	28.543520	6.296999	0.000000	4.609800	3.307626	9.878557	11.140387	0.194436	26.470674	11.907514	0.000000	0.138272	-0.512556	-1.793294	0.256786	-0.681700	-1.905375	0.227168	-1.246230	-1.905375	0.158031	-1.246230	-1.569132	0.128400	-1.045205	-1.457051	0.079009	-0.793950	-1.344971	0.987665	-5.798141	-9.973764	0.000000	0.000000	26.998568	-2.470839	-7.154410	3.789289	-15.668070	48.345678	69.238568	89.408966	25.011181	34.142654	2.173733	-16.485908	41.259497	75.732739	60.476984	-5.761368	30.893510
0.135593	-3.019859	-3.734220	112.566714	0.392821	0.776523	1.021483	-1.091520	-3.395853	-27.883839	9.318388	0.162637	28.669538	6.755311	0.000000	4.627748	3.162252	9.883808	11.137264	0.194382	26.555685	12.080531	0.000000	0.146939	-0.501402	-1.791024	0.272881	-0.666864	-1.902963	0.241406	-1.219108	-1.902963	0.167937	-1.219108	-1.567146	0.136448	-1.022458	-1.455207	0.083961	-0.776671	-1.343268	1.049571	-5.671955	-9.961138	0.000000	0.000000	27.126610	-2.667246	-7.391723	3.392754	-15.621972	47.852809	69.305072	89.393940	25.019889	34.131673	2.070569	-16.506406	41.330324	75.789912	60.788335	-5.802957	30.995706
0.152542	-2.871421	-3.737017	112.698794	0.392885	0.776468	1.020975	-1.065222	-3.257526	-28.352742	9.371104	0.163557	28.804186	7.299142	0.000000	4.632340	2.973047	9.820044	11.108961	0.193888	26.655120	12.372694	0.000000	0.155156	-0.486096	-1.792350	0.288141	-0.646507	-1.904371	0.254906	-1.181893	-1.904371	0.177328	-1.181893	-1.568306	0.144078	-0.991246	-1.456284	0.088656	-0.752962	-1.344262	1.108265	-5.498810	-9.968511	0.000000	0.000000	27.217936	-2.882950	-7.570671	3.062915	-15.587158	47.447964	69.359661	89.380099	25.050539	34.122187	1.986596	-16.514197	41.420825	75.810613	60.995455	-5.864531	31.070585
0.169492	-2.703543	-3.717947	112.822663	0.392958	0.776460	1.020533	-1.021140	-3.110645	-28.882489	9.481656	0.165486	28.943081	7.896892	0.000000	4.625234	2.751508	9.697570	11.061984	0.193068	26.763699	12.754695	0.000000	0.162459	-0.467698	-1.793920	0.301703	-0.622038	-1.906040	0.266904	-1.137161	-1.906040	0.185674	-1.137161	-1.569680	0.150859	-0.953730	-1.457560	0.092829	-0.724464	-1.345440	1.160428	-5.290693	-9.977243	0.000000	0.000000	27.273670	-3.111570	-7.708121	2.785546	-15.563442	47.098032	69.410040	89.367404	25.080151	34.113960	1.933220	-16.509338	41.539013	75.794809	61.093374	-5.936187	31.121506
0.186441	-2.539771	-3.695872	112.930899	0.393040	0.776474	1.020155	-0.950666	-2.983869	-29.399746	9.629553	0.168067	29.106635	8.519350	0.000000	4.619778	2.534344	9.546539	10.992170	0.191850	26.871867	13.171237	0.000000	0.169146	-0.449802	-1.779155	0.314121	-0.598236	-1.890352	0.277890	-1.093648	-1.890352	0.193317	-1.093648	-1.556760	0.157069	-0.917236	-1.445563	0.096650	-0.696743	-1.334366	1.208191	-5.088247	-9.895124	0.000000	0.000000	27.316285	-3.425219	-7.967671	2.474509	-15.531306	46.641091	69.499493	89.358400	25.047175	34.107352	1.956131	-16.491694	41.753169	75.733826	60.965002	-5.924312	31.225108
0.203390	-2.382902	-3.642515	113.001940	0.393166	0.776552	1.019945	-0.874465	-2.864491	-29.857865	9.849439	0.171905	29.218026	8.998045	0.000000	4.590061	2.309275	9.367154	10.934380	0.190841	26.969424	13.570971	0.000000	0.170395	-0.431596	-1.741040	0.316441	-0.574023	-1.849855	0.279942	-1.049382	-1.849855	0.194744	-1.049382	-1.523410	0.158229	-0.880110	-1.414595	0.097364	-0.668542	-1.305780	1.217115	-4.882299	-9.683141	0.000000	0.000000	27.292297	-3.695259	-8.235818	2.139735	-15.526586	46.060955	69.636130	89.350230	24.821567	34.102843	2.136393	-16.465101	42.134325	75.594009	60.627036	-5.884437	31.299286
0.220339	-2.233020	-3.568781	113.053635	0.393285	0.776673	1.019910	-0.793827	-2.764064	-30.353313	10.124731	0.176710	29.301911	9.455433	0.000000	4.553994	2.084725	9.157285	10.899704	0.190236	27.059757	13.966660	0.000000	0.167778	-0.413240	-1.688311	0.311580	-0.549609	-1.793831	0.275642	-1.004751	-1.793831	0.191753	-1.004751	-1.477273	0.155798	-0.842678	-1.371753	0.095868	-0.640108	-1.266234	1.198419	-4.674649	-9.389882	0.000000	0.000000	27.212026	-3.951790	-8.534594	1.790957	-15.548117	45.356776	69.804456	89.341361	24.511659	34.097716	2.421734	-16.412232	42.595443	75.396376	60.290427	-5.818892	31.327735
0.237288	-2.097521	-3.478954	113.047708	0.393428	0.776827	1.020024	-0.704525	-2.686662	-30.808271	10.438026	0.182178	29.371455	9.871722	0.000000	4.512552	1.866621	8.852919	10.887850	0.190029	27.145947	14.386284	0.000000	0.161679	-0.395168	-1.625376	0.300254	-0.525574	-1.726962	0.265622	-0.960812	-1.726962	0.184783	-0.960812	-1.422204	0.150135	-0.805827	-1.320618	0.092383	-0.612116	-1.219032	1.154857	-4.470222	-9.039856	0.000000	0.000000	27.099662	-4.161460	-8.793955	1.481288	-15.587837	44.629906	69.989014	89.329679	24.124858	34.090717	2.761967	-16.344853	43.071426	75.173905	59.818924	-5.773420	31.276559
0.254237	-1.982848	-3.375095	113.009203	0.393596	0.777021	1.020274	-0.608014	-2.625322	-31.138042	10.773026	0.188025	29.427997	10.119683	0.000000	4.455440	1.670365	8.571751	10.869566	0.189710	27.202542	14.721074	0.000000	0.151942	-0.378702	-1.560943	0.282172	-0.503674	-1.658502	0.249626	-0.920776	-1.658502	0.173655	-0.920776	-1.365825	0.141094	-0.772249	-1.268266	0.086820	-0.586610	-1.170707	1.085310	-4.283955	-8.681495	0.000000	0.000000	26.966511	-4.311348	-9.000335	1.199794	-15.625008	43.876753	70.168281	89.315203	23.658457	34.081042	3.128384	-16.270735	43.524699	74.950089	59.197894	-5.810478	31.168897
